<svg width="193" height="17" viewBox="0 0 193 17" fill="none" xmlns="http://www.w3.org/2000/svg">
<path d="M8.85573 1.32911V16.0017H7.38961V1.32911H0V0.00170898H16.2454V1.32911H8.85573Z" fill="black"/>
<path d="M40.3128 16.0017V8.22295H25.7583V16.0017H24.2805V0.00171875H25.7583V6.89526H40.3128V0.00170898H41.7908V16.0017H40.3128Z" fill="black"/>
<path d="M53.5857 9.15452V16.0017H52.1078V0.00171782H60.1952C61.2626 -0.0142649 62.3287 0.0813193 63.3756 0.286864C64.1486 0.432951 64.8854 0.72558 65.5451 1.14849C66.0849 1.50525 66.5129 2.00342 66.7807 2.58686C67.0534 3.22384 67.1863 3.91034 67.1709 4.60144C67.2241 5.64208 66.8827 6.66507 66.2131 7.47174C65.5747 8.19008 64.5461 8.68115 63.1271 8.94495L68.6724 16.0017H66.8161L61.5783 9.10789C61.3575 9.12363 61.133 9.13524 60.9046 9.14272C60.6758 9.15059 60.4394 9.15452 60.1952 9.15452H53.5857ZM65.6575 4.60144C65.6825 4.02638 65.5561 3.45471 65.2906 2.94196C65.0142 2.49211 64.5935 2.14582 64.0949 1.95785C63.3997 1.69278 62.6674 1.53382 61.9234 1.48644C61.0278 1.40469 59.9291 1.36386 58.6275 1.36395H53.5857V7.792H58.5802C59.882 7.792 60.9826 7.7551 61.8821 7.68131C62.631 7.64 63.3692 7.48693 64.0715 7.22732C64.5731 7.04566 64.9996 6.7058 65.2846 6.26063C65.556 5.74988 65.6847 5.17727 65.6575 4.60144Z" fill="black"/>
<path d="M77.1211 16.0017V0.00170898H90.6587V1.36395H78.7289V6.87221H90.0557V8.19962H78.7289V14.6392H90.8361V16.0017L77.1211 16.0017Z" fill="black"/>
<path d="M115.122 16.0017L112.888 11.7745H101.857L99.622 16.0017H98.0021L106.503 0.00170898H108.241L116.742 16.0017H115.122ZM107.378 1.41059L102.578 10.4471H112.166L107.378 1.41059Z" fill="black"/>
<path d="M142.506 7.98999C142.519 8.91026 142.41 9.82824 142.181 10.7207C141.991 11.4574 141.681 12.1592 141.265 12.7993C140.88 13.3796 140.394 13.8882 139.828 14.3014C139.253 14.7189 138.62 15.0523 137.948 15.2912C137.221 15.549 136.468 15.7306 135.702 15.8328C134.858 15.9478 134.006 16.0043 133.154 16.0017H124.771V0.00165354H133.13C134.379 -0.00726104 135.624 0.121552 136.843 0.385687C137.917 0.611284 138.93 1.05779 139.816 1.69596C140.676 2.33844 141.356 3.18594 141.791 4.15862C142.304 5.37079 142.548 6.67723 142.506 7.98999ZM140.993 7.99589C141.004 7.21894 140.916 6.44369 140.733 5.68802C140.581 5.07148 140.329 4.48311 139.987 3.94568C139.674 3.46329 139.273 3.04242 138.804 2.70451C138.321 2.36156 137.791 2.08871 137.23 1.8943C136.613 1.68074 135.974 1.53424 135.325 1.45744C134.599 1.36944 133.868 1.32656 133.136 1.32906H126.249V14.6742H133.136C134.205 14.6833 135.272 14.5797 136.319 14.3655C137.214 14.1886 138.06 13.8228 138.798 13.2932C139.508 12.7592 140.065 12.0522 140.413 11.2418C140.832 10.2109 141.03 9.10571 140.993 7.99589Z" fill="black"/>
<path d="M151.653 16.0017V0.00170898H165.19V1.36395H153.261V6.87221H164.587V8.19962H153.261V14.6392H165.368V16.0017L151.653 16.0017Z" fill="black"/>
<path d="M192.509 7.98999C192.522 8.91026 192.413 9.82824 192.184 10.7207C191.994 11.4574 191.684 12.1592 191.268 12.7993C190.883 13.3796 190.397 13.8882 189.831 14.3014C189.257 14.7189 188.623 15.0523 187.952 15.2912C187.224 15.549 186.471 15.7306 185.705 15.8328C184.861 15.9478 184.009 16.0043 183.157 16.0017H174.774V0.00165354H183.134C184.382 -0.00726104 185.627 0.121552 186.846 0.385687C187.92 0.611284 188.933 1.05779 189.82 1.69596C190.679 2.33844 191.359 3.18594 191.794 4.15862C192.308 5.37079 192.551 6.67723 192.509 7.98999ZM190.996 7.99589C191.007 7.21894 190.919 6.44369 190.736 5.68802C190.584 5.07148 190.332 4.48311 189.99 3.94568C189.677 3.46329 189.276 3.04241 188.807 2.70451C188.324 2.36156 187.794 2.08871 187.233 1.8943C186.616 1.68074 185.977 1.53424 185.328 1.45744C184.602 1.36944 183.871 1.32656 183.139 1.32906H176.252V14.6742H183.139C184.208 14.6833 185.275 14.5797 186.322 14.3655C187.217 14.1886 188.063 13.8228 188.801 13.2932C189.511 12.7592 190.068 12.0522 190.416 11.2418C190.835 10.2109 191.033 9.10571 190.996 7.99589Z" fill="black"/>
</svg>
